# xmcd
#
# Track frame offsets: 
#        182
#        19065
#        39845
#        59887
#        86640
#        105962
#        120637
#        137360
#        157565
#        178885
#        217997
#        241617
#        259740
#        290370
#
# Disc length: 4515 seconds
#
# Revision: 1
# Processed by: cddbd v1.4PL0 Copyright (c) Steve Scherf et al.
# Submitted via: ExactAudioCopy v0.90b4
#
DISCID=af11a10e
DTITLE=Albert King - The Tomato Years
DYEAR=1900
DGENRE=Blues
TTITLE0=Cold Women With Warm Hearts
TTITLE1=Truckload Of Lovin'
TTITLE2=Cadillac Assembly Line
TTITLE3=Angel Of Mercy
TTITLE4=The Very Thought Of You
TTITLE5=We All Wanna Boogie
TTITLE6=Get Out Of My Life Woman
TTITLE7=Call My Job
TTITLE8=Good Time Charly
TTITLE9=I'm Gonna Call You Soon As The Sun Goes Down
TTITLE10=That's What The Blues Is All About
TTITLE11=Love Shock
TTITLE12=I'll Play The Blues For You
TTITLE13=Blues At Sunrise
EXTD=
EXTT0=
EXTT1=
EXTT2=
EXTT3=
EXTT4=
EXTT5=
EXTT6=
EXTT7=
EXTT8=
EXTT9=
EXTT10=
EXTT11=
EXTT12=
EXTT13=
PLAYORDER=
